<?xml version="1.0" encoding="utf-8"?>
<!-- Generator: Adobe Illustrator 18.1.1, SVG Export Plug-In . SVG Version: 6.00 Build 0)  -->
<svg version="1.1" id="Layer_1" xmlns="http://www.w3.org/2000/svg" xmlns:xlink="http://www.w3.org/1999/xlink" x="0px" y="0px"
	 viewBox="270 104 180 42" enable-background="new 270 104 180 42" xml:space="preserve">
<path fill="#F9F9F9" d="M318.4,277.4C313.2,280.6,317.2,278.2,318.4,277.4L318.4,277.4z"/>
<g>
	<g>
		<path fill="#212120" d="M341,121.4v4.4h-1.5v-10h2.5c0.7,0,1.2,0,1.6,0.1c0.4,0.1,0.6,0.2,0.9,0.4c0.3,0.2,0.5,0.5,0.7,0.9
			s0.3,0.8,0.3,1.3c0,0.5-0.1,0.9-0.3,1.3s-0.4,0.7-0.7,0.9c-0.2,0.2-0.5,0.3-0.9,0.4c-0.3,0.1-0.9,0.1-1.6,0.1h-0.3
			C341.6,121.4,341,121.4,341,121.4z M341.1,120.1h0.4c0.9,0,1.5-0.1,1.7-0.3c0.2-0.2,0.4-0.5,0.4-1c0-0.5-0.2-0.9-0.5-1.1
			c-0.3-0.2-0.9-0.3-1.7-0.3H341v2.8H341.1z"/>
		<path fill="#212120" d="M348.4,121.4v4.4h-1.5v-10h2.3c0.6,0,1.1,0,1.5,0.1c0.4,0.1,0.7,0.2,0.9,0.4c0.3,0.2,0.5,0.5,0.7,0.9
			s0.2,0.8,0.2,1.2c0,0.8-0.2,1.4-0.6,1.9s-0.9,0.7-1.7,0.8l3.4,4.5h-1.9l-3.3-4.4l0,0V121.4z M348.5,120.2h0.3
			c0.8,0,1.4-0.1,1.7-0.3c0.3-0.2,0.4-0.5,0.4-1c0-0.5-0.1-0.9-0.4-1.1c-0.3-0.2-0.8-0.3-1.6-0.3h-0.4V120.2z"/>
		<path fill="#212120" d="M364.9,120.9c0,0.7-0.1,1.3-0.4,2c-0.3,0.6-0.6,1.2-1.1,1.6c-0.5,0.5-1.1,0.8-1.7,1.1
			c-0.6,0.3-1.3,0.4-2.1,0.4c-0.7,0-1.4-0.1-2.1-0.4c-0.6-0.3-1.2-0.6-1.7-1.1c-0.5-0.5-0.9-1-1.1-1.6c-0.3-0.6-0.4-1.3-0.4-2.1
			s0.1-1.3,0.4-2.1c0.3-0.6,0.6-1.2,1.1-1.6c0.5-0.5,1.1-0.8,1.7-1.1s1.3-0.4,2.1-0.4c0.7,0,1.4,0.1,2.1,0.4s1.2,0.6,1.7,1.1
			c0.5,0.5,0.9,1,1.1,1.7C364.8,119.5,364.9,120.2,364.9,120.9z M363.2,120.9c0-0.5-0.1-1-0.3-1.4s-0.4-0.8-0.8-1.2
			c-0.3-0.3-0.7-0.6-1.1-0.8c-0.4-0.2-0.9-0.3-1.4-0.3c-0.5,0-0.9,0.1-1.4,0.3c-0.4,0.2-0.8,0.4-1.1,0.8c-0.3,0.3-0.6,0.7-0.8,1.2
			c-0.2,0.4-0.3,0.9-0.3,1.4s0.1,1,0.3,1.4s0.4,0.8,0.8,1.2c0.3,0.3,0.7,0.6,1.1,0.8c0.4,0.2,0.9,0.3,1.4,0.3c0.5,0,0.9-0.1,1.3-0.3
			c0.4-0.2,0.8-0.4,1.1-0.8c0.3-0.3,0.6-0.7,0.8-1.2C363.1,121.8,363.2,121.4,363.2,120.9z"/>
		<path fill="#212120" d="M366.1,123.9l1.3-0.6c0.1,0.4,0.3,0.8,0.7,1c0.3,0.2,0.7,0.3,1.2,0.3c0.5,0,0.8-0.1,1.1-0.4
			c0.3-0.3,0.4-0.6,0.4-1c0-0.6-0.5-1.1-1.4-1.5c-0.1-0.1-0.2-0.1-0.3-0.1c-1.1-0.5-1.9-1-2.2-1.4c-0.4-0.4-0.5-0.9-0.5-1.5
			c0-0.8,0.3-1.4,0.8-2c0.5-0.5,1.2-0.7,2.2-0.7c0.7,0,1.3,0.1,1.9,0.4c0.5,0.3,0.8,0.7,1,1.2l-1.2,0.6c-0.2-0.3-0.4-0.5-0.6-0.7
			c-0.2-0.1-0.5-0.2-0.8-0.2c-0.4,0-0.8,0.1-1,0.3c-0.2,0.2-0.4,0.5-0.4,0.9c0,0.6,0.5,1.1,1.6,1.6c0.1,0,0.1,0.1,0.2,0.1
			c1,0.4,1.6,0.9,2.1,1.3c0.4,0.4,0.5,0.9,0.5,1.6c0,0.9-0.3,1.6-0.9,2.3c-0.6,0.6-1.4,0.8-2.4,0.8c-0.8,0-1.5-0.2-2.1-0.6
			C366.6,125.1,366.3,124.6,366.1,123.9z"/>
		<path fill="#212120" d="M384.5,120.9c0,0.7-0.1,1.3-0.4,2c-0.3,0.6-0.6,1.2-1.1,1.6c-0.5,0.5-1.1,0.8-1.7,1.1
			c-0.6,0.3-1.3,0.4-2.1,0.4c-0.7,0-1.4-0.1-2.1-0.4c-0.6-0.3-1.2-0.6-1.7-1.1c-0.5-0.5-0.9-1-1.1-1.6c-0.3-0.6-0.4-1.3-0.4-2.1
			s0.1-1.3,0.4-2.1c0.3-0.6,0.6-1.2,1.1-1.6c0.5-0.5,1.1-0.8,1.7-1.1c0.6-0.3,1.3-0.4,2.1-0.4c0.7,0,1.4,0.1,2.1,0.4
			s1.2,0.6,1.7,1.1c0.5,0.5,0.9,1,1.1,1.7C384.4,119.5,384.5,120.2,384.5,120.9z M382.9,120.9c0-0.5-0.1-1-0.3-1.4s-0.4-0.8-0.8-1.2
			c-0.3-0.3-0.7-0.6-1.1-0.8c-0.4-0.2-0.9-0.3-1.4-0.3c-0.5,0-0.9,0.1-1.4,0.3c-0.4,0.2-0.8,0.4-1.1,0.8c-0.3,0.3-0.6,0.7-0.8,1.2
			c-0.2,0.4-0.3,0.9-0.3,1.4s0.1,1,0.3,1.4s0.4,0.8,0.8,1.2c0.3,0.3,0.7,0.6,1.1,0.8c0.4,0.2,0.9,0.3,1.4,0.3c0.5,0,0.9-0.1,1.3-0.3
			c0.4-0.2,0.8-0.4,1.1-0.8c0.3-0.3,0.6-0.7,0.8-1.2C382.8,121.8,382.9,121.4,382.9,120.9z"/>
		<path fill="#212120" d="M386.3,124.1c0.2,0.2,0.3,0.3,0.5,0.4c0.2,0.1,0.3,0.1,0.5,0.1c0.3,0,0.5-0.1,0.6-0.3
			c0.1-0.2,0.2-0.6,0.2-1.1v-7.2h1.6v7.7c0,0.8-0.2,1.4-0.5,1.9c-0.4,0.4-0.9,0.6-1.7,0.6c-0.4,0-0.8-0.1-1.1-0.2
			c-0.3-0.2-0.7-0.4-1-0.8L386.3,124.1z"/>
		<path fill="#212120" d="M341.3,136.5v5h-1.7v-11.3h2.6c0.7,0,1.3,0,1.7,0.1s0.7,0.3,1,0.5c0.3,0.3,0.6,0.6,0.8,1
			c0.2,0.4,0.3,0.9,0.3,1.4c0,0.9-0.2,1.6-0.6,2.2c-0.4,0.5-1,0.8-2,0.9l3.9,5.1h-2.1l-3.7-5H341.3z M341.4,135.1h0.3
			c0.9,0,1.6-0.1,2-0.3s0.5-0.6,0.5-1.2c0-0.6-0.2-1-0.5-1.3c-0.3-0.2-0.9-0.4-1.9-0.4h-0.3v3.3H341.4z"/>
		<path fill="#212120" d="M355.1,138.2h-5.9c0,0.7,0.2,1.2,0.6,1.6c0.4,0.4,0.8,0.6,1.4,0.6c0.5,0,1-0.1,1.3-0.3s0.7-0.6,0.9-1.1
			l1.4,0.8c-0.4,0.7-0.9,1.2-1.5,1.6c-0.6,0.3-1.3,0.5-2.2,0.5c-1.1,0-2.1-0.3-2.8-1c-0.7-0.7-1-1.6-1-2.9c0-1.1,0.3-2.1,1-2.8
			c0.7-0.7,1.6-1.1,2.8-1.1c1.1,0,2.1,0.3,2.8,1c0.6,0.7,1,1.6,1,2.8L355.1,138.2L355.1,138.2z M353.3,137c-0.1-0.5-0.3-0.9-0.6-1.2
			c-0.3-0.3-0.8-0.4-1.3-0.4c-0.5,0-1,0.1-1.3,0.4c-0.3,0.3-0.6,0.7-0.7,1.2H353.3z"/>
		<path fill="#212120" d="M355.9,140.2l1.3-0.7c0.1,0.4,0.3,0.6,0.6,0.8c0.3,0.2,0.6,0.3,1,0.3s0.6-0.1,0.9-0.3
			c0.2-0.2,0.3-0.4,0.3-0.7c0-0.4-0.4-0.7-1.1-1c-0.2-0.1-0.4-0.2-0.6-0.2c-0.8-0.3-1.3-0.6-1.6-1c-0.3-0.3-0.5-0.7-0.5-1.2
			c0-0.6,0.2-1.1,0.7-1.5c0.5-0.4,1.2-0.6,2.1-0.6c0.5,0,1,0.1,1.4,0.3c0.4,0.2,0.7,0.5,0.9,0.9l-1.2,0.8c-0.1-0.2-0.2-0.4-0.4-0.5
			c-0.2-0.1-0.5-0.2-0.7-0.2c-0.3,0-0.6,0.1-0.7,0.2c-0.2,0.1-0.3,0.3-0.3,0.6c0,0.4,0.4,0.7,1.3,1c0.3,0.1,0.5,0.2,0.6,0.2
			c0.7,0.3,1.1,0.6,1.4,0.9c0.3,0.3,0.4,0.7,0.4,1.2c0,0.7-0.3,1.3-0.8,1.7c-0.5,0.4-1.2,0.6-2.2,0.6c-0.7,0-1.3-0.1-1.7-0.4
			C356.6,141.2,356.2,140.8,355.9,140.2z"/>
		<path fill="#212120" d="M363,138c0-0.5,0.1-1,0.3-1.5s0.5-0.9,0.8-1.2c0.4-0.4,0.8-0.6,1.3-0.8c0.5-0.2,1-0.3,1.5-0.3
			c0.5,0,1,0.1,1.5,0.3c0.5,0.2,0.9,0.5,1.3,0.8c0.4,0.4,0.7,0.8,0.9,1.2c0.2,0.5,0.3,0.9,0.3,1.4s-0.1,1-0.3,1.5
			c-0.2,0.5-0.5,0.9-0.8,1.2c-0.4,0.4-0.8,0.7-1.3,0.8c-0.5,0.2-1,0.3-1.5,0.3c-0.5,0-1-0.1-1.5-0.3c-0.5-0.2-0.9-0.5-1.3-0.8
			c-0.4-0.4-0.7-0.8-0.9-1.2C363.1,139,363,138.5,363,138z M369.3,138c0-0.7-0.2-1.2-0.6-1.7c-0.4-0.5-0.9-0.7-1.6-0.7
			c-0.6,0-1.1,0.2-1.6,0.7c-0.4,0.5-0.6,1-0.6,1.7s0.2,1.2,0.6,1.7c0.4,0.5,0.9,0.7,1.6,0.7c0.6,0,1.1-0.2,1.6-0.7
			C369,139.2,369.3,138.7,369.3,138z"/>
		<path fill="#212120" d="M374.4,134.3v4.1c0,0.7,0.1,1.2,0.4,1.5c0.3,0.3,0.7,0.4,1.4,0.4c0.7,0,1.1-0.1,1.4-0.4
			c0.3-0.3,0.4-0.8,0.4-1.5v-4.1h1.6v3.6c0,1.4-0.3,2.4-0.8,3.1c-0.5,0.6-1.4,0.9-2.7,0.9c-1.2,0-2.2-0.3-2.7-0.9
			c-0.5-0.6-0.8-1.6-0.8-3.1v-3.6H374.4z"/>
		<path fill="#212120" d="M383.7,135.5c0.2-0.5,0.4-0.8,0.7-1c0.3-0.2,0.6-0.3,1.1-0.3c0.2,0,0.5,0,0.7,0.1c0.2,0.1,0.4,0.1,0.7,0.2
			l-0.6,1.4c-0.1-0.1-0.3-0.2-0.5-0.2s-0.3-0.1-0.5-0.1c-0.5,0-0.9,0.2-1.2,0.6c-0.2,0.4-0.4,1.2-0.4,2.3v3.2H382v-7.4h1.6V135.5
			L383.7,135.5z"/>
		<path fill="#212120" d="M393.3,136.4c-0.2-0.3-0.5-0.5-0.9-0.6c-0.3-0.1-0.7-0.2-1.1-0.2c-0.7,0-1.2,0.2-1.6,0.6
			c-0.4,0.4-0.6,1-0.6,1.7s0.2,1.3,0.6,1.7c0.4,0.4,1,0.6,1.7,0.6c0.4,0,0.7-0.1,1.1-0.2c0.3-0.1,0.6-0.4,0.8-0.7v2
			c-0.3,0.2-0.6,0.3-1,0.4c-0.3,0.1-0.7,0.1-1.1,0.1c-1.1,0-2.1-0.4-2.8-1.1c-0.7-0.7-1.1-1.6-1.1-2.9c0-1.1,0.4-2.2,1.1-2.9
			c0.7-0.7,1.7-1.1,2.9-1.1c0.4,0,0.7,0,1,0.1c0.3,0.1,0.6,0.2,0.9,0.3v2.2H393.3z"/>
		<path fill="#212120" d="M402,138.2h-5.9c0,0.7,0.2,1.2,0.6,1.6c0.4,0.4,0.8,0.6,1.4,0.6c0.5,0,1-0.1,1.3-0.3
			c0.3-0.2,0.7-0.6,0.9-1.1l1.4,0.8c-0.4,0.7-0.9,1.2-1.5,1.6c-0.6,0.3-1.3,0.5-2.2,0.5c-1.1,0-2.1-0.3-2.8-1s-1-1.6-1-2.9
			c0-1.1,0.3-2.1,1-2.8c0.7-0.7,1.6-1.1,2.8-1.1s2.1,0.3,2.8,1c0.6,0.7,1,1.6,1,2.8L402,138.2L402,138.2z M400.2,137
			c-0.1-0.5-0.3-0.9-0.6-1.2c-0.3-0.3-0.8-0.4-1.3-0.4s-1,0.1-1.3,0.4c-0.3,0.3-0.6,0.7-0.7,1.2H400.2z"/>
		<path fill="#212120" d="M402.9,140.2l1.3-0.7c0.1,0.4,0.3,0.6,0.6,0.8c0.3,0.2,0.6,0.3,1,0.3c0.4,0,0.6-0.1,0.9-0.3
			c0.2-0.2,0.3-0.4,0.3-0.7c0-0.4-0.4-0.7-1.1-1c-0.2-0.1-0.4-0.2-0.6-0.2c-0.8-0.3-1.3-0.6-1.6-1c-0.3-0.3-0.5-0.7-0.5-1.2
			c0-0.6,0.2-1.1,0.7-1.5c0.5-0.4,1.2-0.6,2.1-0.6c0.5,0,1,0.1,1.4,0.3c0.4,0.2,0.7,0.5,0.9,0.9l-1.2,0.8c-0.1-0.2-0.2-0.4-0.4-0.5
			c-0.2-0.1-0.5-0.2-0.7-0.2c-0.3,0-0.6,0.1-0.7,0.2c-0.2,0.1-0.3,0.3-0.3,0.6c0,0.4,0.4,0.7,1.3,1c0.3,0.1,0.5,0.2,0.6,0.2
			c0.7,0.3,1.1,0.6,1.4,0.9c0.3,0.3,0.4,0.7,0.4,1.2c0,0.7-0.3,1.3-0.8,1.7c-0.5,0.4-1.2,0.6-2.2,0.6c-0.7,0-1.3-0.1-1.7-0.4
			C403.5,141.3,403.2,140.8,402.9,140.2z"/>
		<path fill="#212120" d="M415.4,141.6v-11.3h1.9v9.7h4.1v1.6H415.4z"/>
		<path fill="#212120" d="M423.1,141.6v-5.9h-1.2v-1.4h1.2v-2.8h1.6v2.8h1.2v1.4h-1.2v5.9H423.1z"/>
		<path fill="#212120" d="M432.7,129.6h1.6v11.9h-1.6v-0.9c-0.3,0.4-0.6,0.7-1,0.9s-0.8,0.3-1.3,0.3c-1,0-1.9-0.3-2.5-1
			s-0.9-1.6-0.9-2.9c0-1.1,0.3-2.1,0.9-2.8c0.6-0.7,1.4-1,2.4-1c0.6,0,1.1,0.1,1.5,0.4c0.4,0.2,0.7,0.6,0.9,1V129.6z M432.7,138
			c0-0.7-0.2-1.3-0.5-1.7c-0.3-0.4-0.8-0.6-1.4-0.6s-1.1,0.2-1.4,0.6c-0.4,0.4-0.5,1-0.5,1.9s0.2,1.3,0.5,1.7
			c0.3,0.4,0.8,0.6,1.4,0.6c0.6,0,1.1-0.2,1.4-0.7C432.4,139.3,432.7,138.7,432.7,138z"/>
	</g>
	<g>
		<line fill="none" x1="334.1" y1="103.4" x2="334.1" y2="146.6"/>
		<rect x="333.1" y="103.4" fill="#212120" width="1" height="43.2"/>
	</g>
	<g>
		
			<linearGradient id="SVGID_1_" gradientUnits="userSpaceOnUse" x1="71.3588" y1="229.3344" x2="81.9294" y2="229.3344" gradientTransform="matrix(4 0 0 -4 0 1041)">
			<stop  offset="0.1393" style="stop-color:#AF88BD"/>
			<stop  offset="0.8557" style="stop-color:#552D84"/>
		</linearGradient>
		<path fill="url(#SVGID_1_)" d="M326.9,116.8l-20.2-11.5c-0.3-0.2-0.7-0.2-1,0l-19.9,11.5c-0.3,0.2-0.4,0.5-0.4,0.8v0.4
			c0,0.3,0,0.6,0.3,0.8l2.5,1.5v-1.5l18.3-10.3l18.4,10.2v20.5l-2.9,1.3l2.3,1.5c0.3,0.2,0.5,0.2,0.8,0l1.7-0.8
			c0.3-0.2,0.8-0.5,0.8-0.8v-22.8C327.7,117.2,327.1,116.9,326.9,116.8z"/>
		
			<linearGradient id="SVGID_2_" gradientUnits="userSpaceOnUse" x1="72.8843" y1="227.9777" x2="80.1438" y2="227.9777" gradientTransform="matrix(4 0 0 -4 0 1041)">
			<stop  offset="0.1393" style="stop-color:#AF88BD"/>
			<stop  offset="0.8557" style="stop-color:#552D84"/>
		</linearGradient>
		<path fill="url(#SVGID_2_)" d="M320.1,120.5l-13.6-7.7c-0.3-0.2-0.6-0.2-0.9,0l-13.6,7.8c-0.3,0.2-0.5,0.5-0.5,0.8v0.5
			c0,0.3,0.2,0.6,0.5,0.8l2.5,1.4l3.7,2.2v0.3v18c0,0.5,0.4,0.9,0.9,0.9h1.2c0.5,0,0.8-0.4,0.8-0.8v-17.9v-0.1v-0.4l4.9-2.8l4.9,2.8
			v5.6c-0.6,0.3-5.1,2.9-5.1,2.9l2.5,1.5c0.3,0.2,0.6,0.2,0.9,0l2.7-1.5l0,0c0.1-0.1,0.4-0.3,1.1-0.7l0.3-0.2
			c0.3-0.2,0.4-0.5,0.4-0.8v-8.3c0-0.3-0.2-0.6-0.4-0.8l-6.9-4c-0.3-0.2-0.7-0.2-0.9,0l-5.8,3.7l-3.5-2.2l0.9-0.5l8.8-5l11.4,6.6
			v13.2c-0.4,0.2-2,1.1-2.1,1.1l1.6,1l0.7,0.4l0.1,0.1c0.3,0.2,0.6,0.2,0.9,0c0.4-0.2,0.8-0.5,0.8-0.5l0.3-0.2
			c0.3-0.2,0.5-0.5,0.5-0.8v-15.4C320.6,121,320.4,120.7,320.1,120.5z"/>
	</g>
</g>
</svg>
